HIERARCHY
ROOT Hips
{
 OFFSET 0.000000 0.000000 0.000000
 CHANNELS 6 Xposition Yposition Zposition Yrotation Xrotation Zrotation
 JOINT Chest
 {
  OFFSET 0.000000 13.173100 -0.061900
  CHANNELS 3 Yrotation Xrotation Zrotation
  JOINT Chest2
  {
   OFFSET 0.000000 8.040800 0.126200
   CHANNELS 3 Yrotation Xrotation Zrotation
   JOINT Chest3
   {
    OFFSET 0.000000 7.994400 0.000000
    CHANNELS 3 Yrotation Xrotation Zrotation
    JOINT Chest4
    {
     OFFSET 0.000000 7.986200 0.000000
     CHANNELS 3 Yrotation Xrotation Zrotation
     JOINT Neck
     {
      OFFSET 0.000000 12.259400 0.000000
      CHANNELS 3 Yrotation Xrotation Zrotation
      JOINT Head
      {
       OFFSET 0.000000 7.518700 0.267100
       CHANNELS 3 Yrotation Xrotation Zrotation
       End Site
       {
        OFFSET 0.000000 13.617700 0.141000
       }
      }
     }
     JOINT RightCollar
     {
      OFFSET -2.983800 8.314300 0.000000
      CHANNELS 3 Yrotation Xrotation Zrotation
      JOINT RightShoulder
      {
       OFFSET -16.133400 0.000000 0.000000
       CHANNELS 3 Yrotation Xrotation Zrotation
       JOINT RightElbow
       {
        OFFSET 0.000000 -29.822100 0.000000
        CHANNELS 3 Yrotation Xrotation Zrotation
        JOINT RightWrist
        {
         OFFSET 0.000000 -24.437700 0.010900
         CHANNELS 3 Yrotation Xrotation Zrotation
         End Site
         {
          OFFSET 0.000000 -18.312300 0.000000
         }
        }
       }
      }
     }
     JOINT LeftCollar
     {
      OFFSET 2.983800 8.314300 0.000000
      CHANNELS 3 Yrotation Xrotation Zrotation
      JOINT LeftShoulder
      {
       OFFSET 16.133400 0.000000 0.000000
       CHANNELS 3 Yrotation Xrotation Zrotation
       JOINT LeftElbow
       {
        OFFSET 0.000000 -29.822100 0.000000
        CHANNELS 3 Yrotation Xrotation Zrotation
        JOINT LeftWrist
        {
         OFFSET 0.000000 -24.437700 0.010900
         CHANNELS 3 Yrotation Xrotation Zrotation
         End Site
         {
          OFFSET 0.000000 -18.312300 0.000000
         }
        }
       }
      }
     }
    }
   }
  }
 }
 JOINT RightHip
 {
  OFFSET -11.206700 0.306200 0.030900
  CHANNELS 3 Yrotation Xrotation Zrotation
  JOINT RightKnee
  {
   OFFSET 0.000000 -57.334900 0.009400
   CHANNELS 3 Yrotation Xrotation Zrotation
   JOINT RightAnkle
   {
    OFFSET 0.000000 -43.376200 0.036600
    CHANNELS 3 Yrotation Xrotation Zrotation
    JOINT RightToe
    {
     OFFSET 0.000000 -10.035500 18.363100
     CHANNELS 3 Yrotation Xrotation Zrotation
     End Site
     {
      OFFSET 0.000000 -1.618500 7.239000
     }
    }
   }
  }
 }
 JOINT LeftHip
 {
  OFFSET 11.206700 0.306200 0.030900
  CHANNELS 3 Yrotation Xrotation Zrotation
  JOINT LeftKnee
  {
   OFFSET 0.000000 -57.334900 0.009400
   CHANNELS 3 Yrotation Xrotation Zrotation
   JOINT LeftAnkle
   {
    OFFSET 0.000000 -43.376200 0.036600
    CHANNELS 3 Yrotation Xrotation Zrotation
    JOINT LeftToe
    {
     OFFSET 0.000000 -10.035500 18.363100
     CHANNELS 3 Yrotation Xrotation Zrotation
     End Site
     {
      OFFSET 0.000000 -1.618500 7.239000
     }
    }
   }
  }
 }
}
MOTION
Frames: 16
Frame Time: 0.008333
-95.140175 64.881048 89.432672 174.678390 -36.092246 -2.680138 1.885287 20.504369 1.740518 0.213982 2.665669 0.361509 0.341865 4.351340 0.592473 1.824645 17.601441 2.658691 1.125561 14.207480 -0.533111 2.350532 -9.410469 -1.450920 -3.735541 -0.598421 -2.797207 -8.079935 0.123648 2.638292 -115.713881 -74.741579 125.831051 6.952659 11.826311 26.592602 -2.882181 0.552574 -0.097077 13.404891 -4.164843 2.586744 123.159419 -66.899263 -142.366855 -24.127300 19.948049 -63.233922 -4.966317 -44.980647 3.949551 -103.175988 85.716182 -98.433676 -0.981508 -8.708312 -3.624157 0.464410 -0.794204 0.257934 -2.693966 -41.390580 4.079891 73.181685 82.702443 62.796971 -6.619801 -13.090883 8.146987 0.483964 1.293614 0.310439
-95.137101 64.869181 89.437478 174.699752 -36.065343 -2.661204 1.870503 20.486253 1.717190 0.214698 2.665275 0.361165 0.403706 4.362360 0.610845 1.795691 17.584840 2.650620 1.083038 14.196731 -0.529492 2.349999 -9.487685 -1.473105 -3.752308 -0.641675 -2.898768 -8.242848 0.299201 2.523847 -117.058996 -74.386719 127.444686 7.081430 11.290558 27.763990 -2.894871 0.433786 -0.070751 13.442444 -4.236076 2.936013 121.605276 -65.880094 -141.880393 -23.760246 19.817523 -64.618542 -4.980085 -45.009543 3.925499 -103.284702 85.734705 -98.539230 -1.015997 -8.713904 -3.657380 0.484063 -0.793873 0.271731 -2.693108 -41.413995 4.050062 73.093368 82.691463 62.695834 -6.622071 -13.092838 8.147891 0.479256 1.302505 0.308154
-95.136187 64.857734 89.441887 174.716018 -36.041607 -2.636739 1.920700 20.480594 1.741223 0.217547 2.660736 0.360804 0.346111 4.350347 0.587766 1.825785 17.576956 2.658545 1.069903 14.173330 -0.539485 2.313103 -9.517244 -1.476520 -3.758483 -0.683966 -2.997125 -8.381549 0.477007 2.389399 -118.403746 -74.012407 129.058633 7.092394 10.689967 28.712005 -2.911642 0.322791 -0.050290 13.439894 -4.326731 3.315384 120.233681 -64.906601 -141.513200 -23.121527 19.577334 -65.490034 -4.986398 -45.038620 3.897989 -103.385188 85.734650 -98.651910 -1.015846 -8.714640 -3.665819 0.483735 -0.796740 0.273250 -2.679317 -41.434251 4.008863 73.042080 82.675268 62.638718 -6.630338 -13.099575 8.148211 0.471097 1.312962 0.304851
-95.132721 64.847905 89.444711 174.720774 -36.029890 -2.624154 1.935894 20.473457 1.746635 0.226128 2.658028 0.365122 0.331412 4.349284 0.579129 1.851700 17.564822 2.668033 1.053777 14.155705 -0.554808 2.274229 -9.549469 -1.500773 -3.756869 -0.717463 -3.075759 -8.490382 0.639309 2.225899 -119.690714 -73.621277 130.611857 6.988703 10.041589 29.465447 -2.932148 0.222011 -0.035575 13.396484 -4.424183 3.711614 119.166395 -64.014827 -141.357281 -22.203069 19.204495 -65.869967 -4.988090 -45.052004 3.887155 -103.403664 85.734546 -98.672412 -1.013764 -8.712676 -3.674000 0.481092 -0.799203 0.272585 -2.669059 -41.443389 3.990343 73.036608 82.657481 62.631079 -6.637441 -13.103854 8.147401 0.459623 1.311910 0.296268
-95.133483 64.837276 89.447844 174.736546 -36.014079 -2.608841 1.921302 20.460122 1.727259 0.249752 2.655651 0.378249 0.334277 4.347060 0.579348 1.833983 17.561448 2.662056 1.056864 14.134243 -0.572174 2.230659 -9.588599 -1.542355 -3.726955 -0.758503 -3.150915 -8.572315 0.792009 2.056400 -120.837401 -73.202691 132.021027 6.776926 9.382400 30.044564 -2.943404 0.174241 -0.029362 13.321960 -4.569633 4.106446 118.442714 -63.224602 -141.443443 -21.010404 18.702339 -65.806599 -4.990322 -45.071521 3.853542 -103.490679 85.723621 -98.741333 -1.012265 -8.714914 -3.710104 0.499834 -0.803507 0.283279 -2.658657 -41.457771 3.958017 73.013516 82.638779 62.607227 -6.654426 -13.104230 8.146719 0.477857 1.311486 0.291712
-95.138348 64.825362 89.451852 174.770469 -35.990276 -2.595812 1.912079 20.438908 1.720065 0.242649 2.652899 0.373557 0.366915 4.337113 0.595942 1.789694 17.566341 2.645711 1.054474 14.114663 -0.591001 2.187163 -9.611336 -1.576419 -3.696710 -0.802648 -3.220137 -8.630374 0.928700 1.881462 -121.760557 -72.749055 133.210482 6.474221 8.762217 30.462723 -2.953536 0.057752 -0.017764 13.208981 -4.635108 4.503437 118.009564 -62.530500 -141.723892 -19.594853 18.096029 -65.349923 -5.012834 -45.098070 3.818322 -103.612020 85.727215 -98.873153 -1.004194 -8.721166 -3.716468 0.496458 -0.803583 0.281664 -2.647907 -41.478945 3.907375 72.950687 82.616971 62.551416 -6.681569 -13.110359 8.140809 0.486071 1.312441 0.285616
-95.142263 64.814039 89.454773 174.794808 -35.972521 -2.589183 1.916626 20.422483 1.725569 0.218819 2.651658 0.360913 0.366831 4.335834 0.596004 1.846184 17.534448 2.671486 0.999557 14.118471 -0.618519 2.142664 -9.627315 -1.610640 -3.713765 -0.823461 -3.290178 -8.672031 1.041597 1.704627 -122.437917 -72.263155 134.165825 6.093187 8.218251 30.721972 -3.019681 -0.030931 -0.019827 13.074253 -4.695677 4.887907 117.765469 -61.913348 -142.107428 -18.038065 17.409426 -64.537471 -5.045682 -45.116089 3.803105 -103.700156 85.733610 -98.976073 -0.994472 -8.728455 -3.720029 0.488520 -0.801152 0.274999 -2.637550 -41.494020 3.865527 72.923333 82.592207 62.534575 -6.690511 -13.123565 8.127673 0.484416 1.323364 0.289650
-95.148243 64.803982 89.455058 174.816449 -35.966267 -2.578283 1.936113 20.417058 1.741414 0.198787 2.647930 0.349878 0.366909 4.330889 0.596255 1.842901 17.527099 2.670124 0.978806 14.107162 -0.639658 2.101649 -9.634365 -1.646284 -3.695636 -0.861054 -3.344190 -8.703159 1.128139 1.527624 -122.905024 -71.757424 134.924971 5.640963 7.756885 30.815841 -3.052213 -0.117362 -0.021787 12.917797 -4.768874 5.252715 117.617168 -61.352550 -142.517365 -16.404888 16.655810 -63.411970 -5.083509 -45.120189 3.771297 -103.852612 85.741019 -99.127090 -0.970385 -8.743258 -3.745406 0.481607 -0.797479 0.267720 -2.608261 -41.500753 3.806296 72.907722 82.569002 62.541591 -6.695775 -13.127004 8.121950 0.483275 1.323239 0.285513
-95.152316 64.793940 89.455039 174.829256 -35.961152 -2.576282 1.928850 20.412740 1.737185 0.218326 2.645372 0.360691 0.385595 4.320616 0.603318 1.812529 17.526315 2.659364 0.956157 14.085120 -0.684213 2.072469 -9.618507 -1.643456 -3.677785 -0.900839 -3.386593 -8.727526 1.189250 1.352530 -123.228563 -71.248139 135.549786 5.136539 7.363936 30.742149 -3.084938 -0.210247 -0.025425 12.746475 -4.834888 5.596706 117.492432 -60.837115 -142.899691 -14.748532 15.846341 -62.028103 -5.092161 -45.124066 3.753702 -103.923023 85.740784 -99.189152 -0.967816 -8.754078 -3.755994 0.488098 -0.793486 0.266391 -2.601060 -41.507165 3.783772 72.900275 82.561825 62.541835 -6.701615 -13.127340 8.119270 0.486446 1.318606 0.283343
-95.157187 64.783491 89.454793 174.848512 -35.954194 -2.579049 1.930937 20.408042 1.745279 0.217652 2.642288 0.360488 0.375220 4.319336 0.597713 1.820144 17.518056 2.660284 0.934601 14.087511 -0.706045 2.064934 -9.616186 -1.634205 -3.661642 -0.940445 -3.416963 -8.747027 1.225517 1.181849 -123.486814 -70.750200 136.107798 4.600551 7.016983 30.515060 -3.122281 -0.298743 -0.031277 12.563916 -4.908576 5.918022 117.357086 -60.369280 -143.223777 -13.108648 14.996111 -60.418454 -5.104947 -45.129849 3.736047 -104.022445 85.744545 -99.278790 -0.971109 -8.766238 -3.765687 0.492742 -0.790098 0.265099 -2.604290 -41.516274 3.765933 72.895540 82.560896 62.539261 -6.702308 -13.130187 8.117659 0.484042 1.315747 0.282952
-95.162412 64.773107 89.453927 174.871116 -35.947955 -2.585096 1.931983 20.404072 1.751757 0.233258 2.641306 0.365644 0.347791 4.316258 0.590063 1.829780 17.511361 2.661542 0.912685 14.094531 -0.726171 2.031400 -9.618120 -1.668686 -3.665127 -0.956181 -3.427767 -8.749743 1.214842 1.009683 -123.734100 -70.275839 136.646043 4.048156 6.684260 30.167012 -3.153760 -0.336618 -0.033651 12.352948 -5.034182 6.204540 117.231856 -59.957124 -143.493956 -11.498188 14.115966 -58.594304 -5.119053 -45.133524 3.711576 -104.169419 85.762840 -99.412462 -0.967699 -8.778812 -3.777952 0.484133 -0.786711 0.262587 -2.615001 -41.522626 3.754387 72.890831 82.561085 62.534823 -6.715483 -13.138412 8.113995 0.491786 1.318746 0.286465
-95.166747 64.762990 89.452451 174.881104 -35.944262 -2.589093 1.938554 20.404718 1.760909 0.235203 2.634076 0.364334 0.346361 4.317398 0.590721 1.831193 17.506900 2.661007 0.894744 14.102129 -0.744975 1.995908 -9.608896 -1.699907 -3.668836 -0.973600 -3.436412 -8.750890 1.186112 0.848278 -124.002596 -69.833882 137.194482 3.505266 6.319398 29.727906 -3.185494 -0.372590 -0.038574 12.120167 -5.166482 6.473385 117.185199 -59.603188 -143.756611 -9.926034 13.221136 -56.578795 -5.124865 -45.134817 3.693077 -104.312153 85.789007 -99.540251 -0.970013 -8.791804 -3.789070 0.477004 -0.780853 0.258978 -2.620751 -41.527269 3.750045 72.910199 82.564244 62.553843 -6.724963 -13.146343 8.112334 0.495407 1.317975 0.287810
-95.171433 64.753672 89.449693 174.889809 -35.946465 -2.591034 1.961888 20.394799 1.775397 0.213131 2.642492 0.359401 0.371342 4.294876 0.594284 1.804056 17.530291 2.660313 0.887052 14.104688 -0.759000 1.962754 -9.581148 -1.731614 -3.646683 -1.013685 -3.448230 -8.766253 1.160187 0.701043 -124.331157 -69.423821 137.785996 3.008557 5.890523 29.214439 -3.260189 -0.482707 -0.068555 11.913380 -5.236614 6.756326 117.289050 -59.310745 -144.072339 -8.414327 12.333099 -54.386635 -5.126703 -45.130174 3.672713 -104.468957 85.815451 -99.684659 -0.968852 -8.804505 -3.806009 0.475035 -0.775359 0.260975 -2.621801 -41.524605 3.741567 72.867470 82.583235 62.506136 -6.706514 -13.156336 8.124455 0.483105 1.316734 0.279859
-95.176630 64.743994 89.447453 174.896114 -35.946136 -2.589511 1.963374 20.371626 1.772250 0.210746 2.659317 0.361087 0.373420 4.262536 0.591173 1.818471 17.494347 2.661957 0.864440 14.177434 -0.752940 1.899563 -9.495731 -1.791724 -3.641711 -0.983050 -3.446919 -8.777968 1.117964 0.564561 -124.764509 -69.040644 138.454499 2.577694 5.413113 28.650316 -3.332823 -0.481262 -0.097198 11.667772 -5.344448 7.003987 117.568949 -59.086451 -144.467771 -6.982214 11.463906 -52.046536 -5.125348 -45.129904 3.656640 -104.592284 85.831140 -99.800774 -0.974120 -8.815638 -3.814463 0.477585 -0.770345 0.261618 -2.623704 -41.523253 3.732165 72.860548 82.585084 62.496489 -6.713215 -13.166213 8.127768 0.482365 1.320947 0.277825
-95.179541 64.734726 89.445459 174.898564 -35.947987 -2.595363 1.970337 20.337991 1.775680 0.211475 2.665076 0.364365 0.371433 4.235819 0.585825 1.819856 17.457537 2.659505 0.847359 14.251217 -0.758414 1.861521 -9.402322 -1.815033 -3.590546 -0.951673 -3.405877 -8.811362 1.074238 0.412892 -125.316541 -68.686103 139.205126 2.197987 4.922144 28.064767 -3.382027 -0.441774 -0.127998 11.405880 -5.468918 7.221893 118.003704 -58.925900 -144.933173 -5.640235 10.617556 -49.611289 -5.127747 -45.126824 3.653719 -104.660256 85.839453 -99.863512 -0.964714 -8.821022 -3.817811 0.469738 -0.767526 0.259673 -2.634466 -41.522265 3.739146 72.846743 82.601544 62.478065 -6.701714 -13.173228 8.129202 0.485279 1.322574 0.278747
-95.178856 64.728181 89.441069 174.902709 -35.968253 -2.616672 1.979051 20.337319 1.795114 0.212158 2.640286 0.362149 0.372554 4.232057 0.584424 1.820400 17.412025 2.652956 0.830454 14.313359 -0.762603 1.838097 -9.299383 -1.826039 -3.569543 -0.868232 -3.365850 -8.805917 0.964806 0.295961 -125.969314 -68.362180 140.017134 1.842017 4.438954 27.476434 -3.410054 -0.373284 -0.138046 11.132443 -5.614850 7.390352 118.553940 -58.811636 -145.448319 -4.392173 9.789399 -47.107500 -5.140803 -45.103654 3.668824 -104.706578 85.846388 -99.898640 -0.962852 -8.813701 -3.824142 0.467836 -0.776841 0.258066 -2.658839 -41.503903 3.767919 72.826196 82.640858 62.443649 -6.649881 -13.181515 8.136540 0.482544 1.311165 0.276447
